<svg width="20" height="22" viewBox="0 0 20 22" fill="none" xmlns="http://www.w3.org/2000/svg">
<path d="M7.27313 17.9386L7.85049 19.2204C8.0221 19.6019 8.30226 19.9261 8.65681 20.1536C9.01145 20.3811 9.42527 20.5022 9.84818 20.5021C10.2711 20.5022 10.685 20.3811 11.0396 20.1536C11.3942 19.9261 11.6743 19.6019 11.8459 19.2204L12.4233 17.9386C12.6288 17.4839 12.9745 17.1047 13.4112 16.8552C13.8506 16.605 14.3588 16.4984 14.8633 16.5508L16.276 16.6992C16.6964 16.7431 17.1208 16.6656 17.4977 16.4762C17.8745 16.2868 18.1875 15.9935 18.3988 15.632C18.6103 15.2707 18.7112 14.8565 18.689 14.4398C18.6668 14.023 18.5225 13.6216 18.2737 13.2842L17.4372 12.1497C17.1395 11.7428 16.9804 11.253 16.9828 10.7511C16.9827 10.2504 17.1434 9.76268 17.4417 9.35772L18.278 8.22336C18.5269 7.88595 18.6712 7.48452 18.6933 7.06776C18.7156 6.65101 18.6148 6.23684 18.4032 5.87553C18.1919 5.51399 17.8788 5.22073 17.5021 5.03131C17.1253 4.84189 16.7009 4.76442 16.2803 4.80833L14.8677 4.95676C14.3633 5.00906 13.8549 4.90249 13.4155 4.65231C12.978 4.40141 12.6322 4.02025 12.4276 3.56344L11.8459 2.28172C11.6743 1.90019 11.3942 1.57601 11.0396 1.3485C10.685 1.12099 10.2711 0.999932 9.84818 1C9.42527 0.999932 9.01145 1.12099 8.65681 1.3485C8.30226 1.57601 8.0221 1.90019 7.85049 2.28172L7.27313 3.56344C7.06857 4.02025 6.72276 4.40141 6.28525 4.65231C5.84586 4.90249 5.33755 5.00906 4.83307 4.95676L3.41602 4.80833C2.99551 4.76442 2.57113 4.84189 2.19433 5.03131C1.81753 5.22073 1.50449 5.51399 1.29319 5.87553C1.0816 6.23684 0.980801 6.65101 1.00302 7.06776C1.02523 7.48452 1.1695 7.88595 1.41832 8.22336L2.25472 9.35772C2.553 9.76268 2.71362 10.2504 2.71354 10.7511C2.71362 11.2517 2.553 11.7395 2.25472 12.1444L1.41832 13.2787C1.1695 13.6161 1.02523 14.0176 1.00302 14.4343C0.980801 14.8511 1.0816 15.2653 1.29319 15.6266C1.5047 15.988 1.81778 16.2811 2.19453 16.4704C2.57127 16.6598 2.99554 16.7374 3.41602 16.6937L4.82869 16.5453C5.33317 16.4931 5.84147 16.5996 6.28086 16.8497C6.72001 17.1 7.06742 17.4812 7.27313 17.9386Z" stroke="#FFFBFB" stroke-width="2" stroke-linecap="round" stroke-linejoin="round"/>
<path d="M10.0279 13.6402C11.6236 13.6402 12.9171 12.3467 12.9171 10.751C12.9171 9.15531 11.6236 7.86182 10.0279 7.86182C8.43225 7.86182 7.13867 9.15531 7.13867 10.751C7.13867 12.3467 8.43225 13.6402 10.0279 13.6402Z" stroke="#FFFBFB" stroke-width="2" stroke-linecap="round" stroke-linejoin="round"/>
</svg>
