<svg width="15" height="15" viewBox="0 0 15 15" fill="none" xmlns="http://www.w3.org/2000/svg">
<path d="M8.1249 14.0088L8.04461 13.2737L7.65273 13.3166L7.46988 13.6658L8.1249 14.0088ZM3.29453 12.6362L3.74848 13.2198L4.49632 12.6382L3.7504 12.0541L3.29453 12.6362ZM13.3091 7.39394C13.3091 10.4407 11.005 12.9503 8.04461 13.2737L8.20528 14.7438C11.9074 14.3393 14.7879 11.2035 14.7879 7.39394H13.3091ZM7.39394 1.47879C10.6608 1.47879 13.3091 4.12709 13.3091 7.39394H14.7879C14.7879 3.31038 11.4775 0 7.39394 0V1.47879ZM1.47879 7.39394C1.47879 4.12709 4.12709 1.47879 7.39394 1.47879V0C3.31038 0 0 3.31038 0 7.39394H1.47879ZM3.7504 12.0541C2.36617 10.9701 1.47879 9.28583 1.47879 7.39394H0C0 9.7597 1.11191 11.8662 2.83866 13.2184L3.7504 12.0541ZM2.10284 14.4998L3.74848 13.2198L2.84059 12.0526L1.19495 13.3325L2.10284 14.4998ZM1.69428 13.3091C2.32791 13.3091 2.60296 14.1108 2.10284 14.4998L1.19495 13.3325C0.583678 13.808 0.919865 14.7879 1.69428 14.7879V13.3091ZM7.39394 13.3091H1.69428V14.7879H7.39394V13.3091ZM8.05939 13.3091H7.39394V14.7879H8.05939V13.3091ZM7.46988 13.6658C7.58005 13.4554 7.80201 13.3091 8.05939 13.3091V14.7879C8.37378 14.7879 8.64507 14.6094 8.78001 14.3518L7.46988 13.6658Z" fill="white"/>
<path d="M5.17605 7.39393C5.17605 7.8023 4.84501 8.13333 4.43666 8.13333C4.02831 8.13333 3.69727 7.8023 3.69727 7.39393C3.69727 6.98557 4.02831 6.65454 4.43666 6.65454C4.84501 6.65454 5.17605 6.98557 5.17605 7.39393Z" fill="white"/>
<path d="M8.13406 7.39393C8.13406 7.8023 7.80303 8.13333 7.39467 8.13333C6.9863 8.13333 6.65527 7.8023 6.65527 7.39393C6.65527 6.98557 6.9863 6.65454 7.39467 6.65454C7.80303 6.65454 8.13406 6.98557 8.13406 7.39393Z" fill="white"/>
<path d="M11.0911 7.39393C11.0911 7.8023 10.7601 8.13333 10.3517 8.13333C9.94333 8.13333 9.6123 7.8023 9.6123 7.39393C9.6123 6.98557 9.94333 6.65454 10.3517 6.65454C10.7601 6.65454 11.0911 6.98557 11.0911 7.39393Z" fill="white"/>
</svg>
