<svg width="18" height="18" viewBox="0 0 18 18" fill="none" xmlns="http://www.w3.org/2000/svg">
<path d="M2 6.01157C2 5.12374 2.00078 4.52021 2.03755 4.0537C2.07337 3.59929 2.1383 3.36691 2.21799 3.20481L0.435971 2.26371C0.188681 2.76674 0.0901208 3.3023 0.0441908 3.88489C-0.000779193 4.4554 8.76979e-07 5.15795 8.76979e-07 6.01157H2ZM2 8.29182V6.01157H8.76979e-07V8.29182H2ZM8.76979e-07 8.29182V13.4742H2V8.29182H8.76979e-07ZM8.76979e-07 13.4742V16.4941H2V13.4742H8.76979e-07ZM8.76979e-07 16.4941C8.76979e-07 17.833 1.56185 18.5036 2.4753 17.5568L1.06109 16.091C1.40757 15.7319 2 15.9862 2 16.4941H8.76979e-07ZM2.4753 17.5568L5.41421 14.5107L4 13.0449L1.06109 16.091L2.4753 17.5568ZM12.2 12.4377H5.41421V14.5107H12.2V12.4377ZM14.908 12.2118C14.7516 12.2944 14.5274 12.3616 14.089 12.3988C13.6389 12.4369 13.0566 12.4377 12.2 12.4377V14.5107C13.0236 14.5107 13.7014 14.5115 14.2518 14.4649C14.8139 14.4173 15.3306 14.3151 15.816 14.0588L14.908 12.2118ZM15.782 11.3059C15.5903 11.6959 15.2843 12.0131 14.908 12.2118L15.816 14.0588C16.5686 13.6613 17.1805 13.0271 17.564 12.247L15.782 11.3059ZM16 8.49911C16 9.38696 15.9992 9.9905 15.9624 10.457C15.9266 10.9114 15.8617 11.1438 15.782 11.3059L17.564 12.247C17.8113 11.7439 17.9099 11.2084 17.9558 10.6258C18.0008 10.0553 18 9.35275 18 8.49911H16ZM16 6.01157V8.49911H18V6.01157H16ZM15.782 3.20481C15.8617 3.36691 15.9266 3.59929 15.9624 4.0537C15.9992 4.52021 16 5.12374 16 6.01157H18C18 5.15795 18.0008 4.4554 17.9558 3.88489C17.9099 3.3023 17.8113 2.76674 17.564 2.26371L15.782 3.20481ZM14.908 2.2989C15.2843 2.49763 15.5903 2.81475 15.782 3.20481L17.564 2.26371C17.1805 1.4836 16.5686 0.849362 15.816 0.451874L14.908 2.2989ZM12.2 2.07295C13.0566 2.07295 13.6389 2.07376 14.089 2.11187C14.5274 2.149 14.7516 2.2163 14.908 2.2989L15.816 0.451874C15.3306 0.195563 14.8139 0.0934081 14.2518 0.0458027C13.7014 -0.000807615 13.0236 9.08969e-07 12.2 9.08969e-07V2.07295ZM5.8 2.07295H12.2V9.08969e-07H5.8V2.07295ZM3.09202 2.2989C3.24842 2.2163 3.47262 2.149 3.91104 2.11187C4.36113 2.07376 4.94342 2.07295 5.8 2.07295V9.08969e-07C4.97642 9.08969e-07 4.2986 -0.000807615 3.74817 0.0458027C3.18608 0.0934081 2.66937 0.195563 2.18404 0.451874L3.09202 2.2989ZM2.21799 3.20481C2.40973 2.81475 2.71569 2.49763 3.09202 2.2989L2.18404 0.451874C1.43139 0.849362 0.819471 1.4836 0.435971 2.26371L2.21799 3.20481ZM5.41421 14.5107V12.4377C4.88378 12.4377 4.37507 12.6561 4 13.0449L5.41421 14.5107Z" fill="white"/>
<path d="M5.14453 5.40015H12.8588" stroke="white" stroke-width="2" stroke-linecap="round" stroke-linejoin="round"/>
<path d="M5.14453 9H9.43025" stroke="white" stroke-width="2" stroke-linecap="round" stroke-linejoin="round"/>
</svg>
