<svg width="17" height="24" viewBox="0 0 17 24" fill="none" xmlns="http://www.w3.org/2000/svg">
<path d="M16.35 4.3215L12.3886 0.532997C12.224 0.363506 12.0269 0.228949 11.8091 0.137372C11.5913 0.0457948 11.3572 -0.000922311 11.121 1.37944e-05H5.35897C4.88894 0.0112976 4.44197 0.205975 4.11358 0.542442C3.78519 0.878908 3.60143 1.33047 3.60156 1.80063V17.6461C3.60156 18.1236 3.79127 18.5816 4.12895 18.9193C4.46663 19.257 4.92463 19.4467 5.40218 19.4467H15.0823C15.5599 19.4467 16.0179 19.257 16.3555 18.9193C16.6932 18.5816 16.8829 18.1236 16.8829 17.6461V5.58914C16.8839 5.35287 16.8372 5.11883 16.7456 4.90103C16.654 4.68322 16.5194 4.48612 16.35 4.3215ZM15.0823 17.6461H5.40218V1.80063H9.32033V5.58914C9.32033 6.06669 9.51004 6.52469 9.84772 6.86237C10.1854 7.20005 10.6434 7.38976 11.121 7.38976H15.0823V17.6461ZM15.0823 5.58914H11.121V1.80063L15.0823 5.58914Z" fill="white"/>
<path d="M11.4808 21.2474H1.80062V5.40194H2.67932V3.60132H1.80062C1.32307 3.60132 0.865071 3.79103 0.527389 4.12871C0.189708 4.46639 0 4.92438 0 5.40194V21.2474C0 21.725 0.189708 22.1829 0.527389 22.5206C0.865071 22.8583 1.32307 23.048 1.80062 23.048H11.4808C11.9583 23.048 12.4163 22.8583 12.754 22.5206C13.0917 22.1829 13.2814 21.725 13.2814 21.2474V20.3399H11.4808V21.2474Z" fill="white"/>
</svg>
