<svg width="28" height="31" viewBox="0 0 28 31" fill="none" xmlns="http://www.w3.org/2000/svg">
<path d="M18.3022 0.30054C13.6993 0.504635 10.1152 4.38708 10.1152 8.99313V10.9413C14.2698 11.4546 17.4967 14.9552 17.5802 19.2288C18.5744 19.5334 19.6629 19.4221 20.5859 18.8948L20.7746 18.7928C21.8275 18.2532 22.5759 18.414 23.5283 18.901L23.8731 19.0865C25.3976 19.9338 27.2716 18.8314 27.2716 17.0873V8.86943C27.2731 4.00208 23.2191 0.0809833 18.3022 0.30054ZM13.9482 8.63596C13.7874 7.65723 14.6223 6.82385 15.5995 6.98465C16.1917 7.08206 16.6695 7.55982 16.7669 8.15201C16.9277 9.13074 16.0927 9.96412 15.1156 9.80487C14.5234 9.70591 14.0456 9.22815 13.9482 8.63596ZM22.3285 11.6479C22.0022 12.3375 21.4889 12.9173 20.8441 13.324C20.1994 13.7321 19.4557 13.9471 18.6934 13.9471H18.6919C17.9296 13.9471 17.1859 13.7321 16.5427 13.3255C15.9087 12.925 15.4016 12.3591 15.0738 11.685C14.9826 11.4979 15.0352 11.2382 15.2176 11.1346C15.4217 11.0171 15.6768 11.1006 15.7758 11.3077C16.0386 11.8597 16.4515 12.3251 16.9679 12.6514C17.4843 12.9776 18.0811 13.1508 18.6934 13.1508H18.695C19.3072 13.1508 19.9041 12.9776 20.4205 12.6498C20.9338 12.3251 21.3451 11.8628 21.6064 11.3155C21.6883 11.1439 21.8832 11.0418 22.0672 11.0897C22.3161 11.1578 22.4336 11.4268 22.3285 11.6479ZM22.2728 9.80332C21.2941 9.96412 20.4607 9.12919 20.6199 8.15046C20.7174 7.55828 21.1951 7.08051 21.7873 6.9831C22.766 6.8223 23.5994 7.65723 23.4386 8.63441C23.3443 9.22814 22.8665 9.70591 22.2728 9.80332Z" fill="white"/>
<path d="M8.57817 11.2961C3.8407 11.2961 0 15.1368 0 19.8743V28.0922C0 29.8363 1.87396 30.9387 3.39849 30.0914C4.62151 29.4111 5.46882 29.2039 6.6872 29.8997L6.88511 30.0048C8.01846 30.5677 9.36363 30.5321 10.4707 29.8997L10.6593 29.7977C11.7123 29.258 12.4606 29.4188 13.4131 29.9059L13.7579 30.0914C15.2824 30.9387 17.1563 29.8363 17.1563 28.0922V19.8743C17.1579 15.1368 13.3172 11.2961 8.57817 11.2961ZM3.81287 19.3981C3.81287 18.608 4.45298 17.9679 5.24308 17.9679C6.03317 17.9679 6.67329 18.608 6.67329 19.3981C6.67329 20.1882 6.03317 20.8283 5.24308 20.8283C4.45298 20.8283 3.81287 20.1866 3.81287 19.3981ZM12.2132 22.6528C11.887 23.3424 11.3737 23.9222 10.7289 24.3288C10.0841 24.737 9.34044 24.952 8.57817 24.952H8.57663C7.81436 24.952 7.07065 24.737 6.42745 24.3304C5.78888 23.9268 5.27864 23.3548 4.95085 22.6744C4.85962 22.4843 4.91838 22.2461 5.10237 22.141C5.30647 22.0235 5.56159 22.107 5.66054 22.3142C5.92339 22.8662 6.33622 23.3316 6.85264 23.6578C7.36907 23.984 7.96589 24.1572 8.57817 24.1572H8.57972C9.192 24.1572 9.78883 23.984 10.3053 23.6563C10.817 23.3331 11.2252 22.8739 11.4881 22.3296C11.5793 22.1426 11.7942 22.0359 11.9906 22.107C12.2117 22.1889 12.3122 22.4425 12.2132 22.6528ZM11.9148 20.8268C11.1247 20.8268 10.4846 20.1866 10.4846 19.3965C10.4846 18.6065 11.1247 17.9663 11.9148 17.9663C12.7049 17.9663 13.345 18.6065 13.345 19.3965C13.345 20.1866 12.7049 20.8268 11.9148 20.8268Z" fill="white"/>
</svg>
