<?xml version="1.0" encoding="utf-8"?>
<!-- Generator: Adobe Illustrator 25.0.0, SVG Export Plug-In . SVG Version: 6.00 Build 0)  -->
<svg version="1.1" id="Layer_1" xmlns="http://www.w3.org/2000/svg" xmlns:xlink="http://www.w3.org/1999/xlink" x="0px" y="0px"
	 viewBox="0 0 800 800" style="enable-background:new 0 0 800 800;" xml:space="preserve">
<style type="text/css">
	.st0{fill:#FFFFFF;}
</style>
<path class="st0" d="M587,723.7H213c-36.3,0-71.2-14.4-96.9-40.1S76,623,76,586.7v-374c0-36.3,14.4-71.2,40.1-96.9
	c25.7-25.7,60.5-40.1,96.9-40.1h374c36.3,0,71.2,14.4,96.9,40.1c25.7,25.7,40.1,60.5,40.1,96.9v374c0,36.3-14.4,71.2-40.1,96.9
	S623.3,723.7,587,723.7z M213,125.7c-23.1,0-45.2,9.2-61.5,25.5S126,189.6,126,212.7v374c0,23.1,9.2,45.2,25.5,61.5
	c16.3,16.3,38.4,25.5,61.5,25.5h374c23.1,0,45.2-9.2,61.5-25.5c16.3-16.3,25.5-38.4,25.5-61.5v-374c0-23.1-9.2-45.2-25.5-61.5
	c-16.3-16.3-38.4-25.5-61.5-25.5H213z"/>
<path class="st0" d="M262,496.7c-25.6,0-50.2-10.2-68.4-28.3c-18.1-18.1-28.3-42.7-28.3-68.4c0-25.6,10.2-50.2,28.3-68.4
	c18.1-18.1,42.7-28.3,68.4-28.3c6.6,0,13,2.6,17.7,7.3c4.7,4.7,7.3,11,7.3,17.7c0,6.6-2.6,13-7.3,17.7c-4.7,4.7-11,7.3-17.7,7.3
	c-8.1,0-16,2.2-23.1,6.2s-12.9,9.8-16.9,16.8c-4.1,7-6.3,14.9-6.4,23c-0.1,8.1,1.9,16.1,5.8,23.2c3.9,7.1,9.6,13,16.5,17.2
	c6.9,4.2,14.8,6.6,22.9,6.8c8.1,0.2,16.1-1.6,23.3-5.4c7.2-3.8,13.2-9.4,17.5-16.2h-15.3c-6.6,0-13-2.6-17.7-7.3
	c-4.7-4.7-7.3-11-7.3-17.7s2.6-13,7.3-17.7c4.7-4.7,11-7.3,17.7-7.3h47c6.6,0.1,12.9,2.7,17.6,7.4c4.7,4.7,7.3,11,7.4,17.6
	c-0.1,25.6-10.3,50-28.3,68.1C312,486.2,287.6,496.5,262,496.7z"/>
<path class="st0" d="M421.7,496.3c-3.3,0-6.6-0.6-9.6-1.8c-3.1-1.2-5.8-3.1-8.2-5.4c-2.3-2.3-4.2-5.1-5.4-8.2
	c-1.2-3.1-1.9-6.3-1.8-9.6V328c0-6.6,2.6-13,7.3-17.7c4.7-4.7,11-7.3,17.7-7.3c6.6,0,13,2.6,17.7,7.3c4.7,4.7,7.3,11,7.3,17.7v143.3
	c0,6.6-2.6,13-7.3,17.7C434.7,493.7,428.3,496.3,421.7,496.3z"/>
<path class="st0" d="M511,496.7c-6.6-0.1-12.9-2.7-17.6-7.4c-4.7-4.7-7.3-11-7.4-17.6V328.3c0-6.6,2.6-13,7.3-17.7
	c4.7-4.7,11-7.3,17.7-7.3c6.6,0,13,2.6,17.7,7.3c4.7,4.7,7.3,11,7.3,17.7v143.3c0,3.3-0.6,6.5-1.9,9.6c-1.3,3-3.1,5.8-5.4,8.1
	c-2.3,2.3-5.1,4.2-8.1,5.4C517.5,496,514.3,496.7,511,496.7z"/>
<path class="st0" d="M597.7,427H511c-6.6,0-13-2.6-17.7-7.3c-4.7-4.7-7.3-11-7.3-17.7c0-6.6,2.6-13,7.3-17.7
	c4.7-4.7,11-7.3,17.7-7.3h86.7c6.6,0,13,2.6,17.7,7.3c4.7,4.7,7.3,11,7.3,17.7c0,6.6-2.6,13-7.3,17.7
	C610.7,424.4,604.3,427,597.7,427z"/>
<path class="st0" d="M597.7,353.3H511c-6.6,0-13-2.6-17.7-7.3c-4.7-4.7-7.3-11-7.3-17.7c0-6.6,2.6-13,7.3-17.7
	c4.7-4.7,11-7.3,17.7-7.3h86.7c6.6,0,13,2.6,17.7,7.3c4.7,4.7,7.3,11,7.3,17.7c0,6.6-2.6,13-7.3,17.7
	C610.7,350.7,604.3,353.3,597.7,353.3z"/>
</svg>
