<svg width="20" height="20" viewBox="0 0 20 20" fill="none" xmlns="http://www.w3.org/2000/svg">
<path fill-rule="evenodd" clip-rule="evenodd" d="M0 10C0 4.47715 4.47715 0 10 0C15.5228 0 20 4.47715 20 10C20 15.5228 15.5228 20 10 20C4.47715 20 0 15.5228 0 10ZM10 7C9.7015 7 9.4344 7.12956 9.2497 7.33882C8.8843 7.75289 8.2523 7.79229 7.83827 7.42683C7.4242 7.06136 7.3848 6.42942 7.75026 6.01535C8.2985 5.3942 9.1038 5 10 5C11.6569 5 13 6.34315 13 8C13 9.3072 12.1647 10.4171 11 10.829V11C11 11.5523 10.5523 12 10 12C9.4477 12 9 11.5523 9 11V10.5C9 9.6284 9.6873 9.112 10.2482 8.9692C10.681 8.859 11 8.4655 11 8C11 7.44772 10.5523 7 10 7ZM10 13C9.4477 13 9 13.4477 9 14C9 14.5523 9.4477 15 10 15H10.01C10.5623 15 11.01 14.5523 11.01 14C11.01 13.4477 10.5623 13 10.01 13H10Z" fill="white"/>
</svg>
