<svg width="26" height="28" viewBox="0 0 26 28" fill="none" xmlns="http://www.w3.org/2000/svg">
<path d="M21.4 26.217H4.6C2.61178 26.217 1 24.6053 1 22.617V12.4926C1 11.1083 1.5977 9.7913 2.63967 8.87983L10.6298 1.8904C11.987 0.703193 14.013 0.703205 15.3702 1.8904L23.3603 8.87983C24.4023 9.7913 25 11.1083 25 12.4926V22.617C25 24.6053 23.3883 26.217 21.4 26.217Z" stroke="white" stroke-width="2" stroke-linecap="round"/>
<path d="M7.58203 16.7933C8.06933 17.8183 8.83734 18.684 9.79691 19.2901C10.7565 19.8961 11.8683 20.2176 13.0032 20.2171C14.1381 20.2166 15.2496 19.8943 16.2087 19.2876C17.1678 18.6807 17.9351 17.8143 18.4216 16.7891" stroke="white" stroke-width="2" stroke-linecap="round" stroke-linejoin="round"/>
</svg>
