<?xml version="1.0" encoding="utf-8"?>
<!-- Generator: Adobe Illustrator 25.0.0, SVG Export Plug-In . SVG Version: 6.00 Build 0)  -->
<svg version="1.1" id="Layer_1" xmlns="http://www.w3.org/2000/svg" xmlns:xlink="http://www.w3.org/1999/xlink" x="0px" y="0px"
	 viewBox="0 0 800 800" style="enable-background:new 0 0 800 800;" xml:space="preserve">
<style type="text/css">
	.st0{fill:#FFFFFF;}
</style>
<path class="st0" d="M698.9,102.8c-25.7-25.7-60.5-40.1-96.9-40.1H228c-36.3,0-71.2,14.4-96.9,40.1S91,163.3,91,199.7v374
	c0,36.3,14.4,71.2,40.1,96.9s60.5,40.1,96.9,40.1h374c36.3,0,71.2-14.4,96.9-40.1c25.7-25.7,40.1-60.5,40.1-96.9v-374
	C739,163.3,724.6,128.5,698.9,102.8z M689,573.7c0,23.1-9.2,45.2-25.5,61.5S625,660.7,602,660.7H228c-23.1,0-45.2-9.2-61.5-25.5
	c-15.1-15.2-24.1-35.3-25.3-56.6l152.4-147.9l111,97.1c9.1,8,22.9,7.5,31.4-1.1l141.2-141.2L689,497.2V573.7z M689,432.1l-95.5-95.5
	c-9-9-23.5-9-32.5,0L418.7,478.9l-110.8-96.8c-9-7.9-22.6-7.5-31.2,0.8L141,514.6v-315c0-23.1,9.2-45.2,25.5-61.5
	s38.5-25.5,61.5-25.5h374c23.1,0,45.2,9.2,61.5,25.5s25.5,38.4,25.5,61.5V432.1z"/>
<circle class="st0" cx="275" cy="225.9" r="55"/>
</svg>
