<svg width="22" height="21" viewBox="0 0 22 21" fill="none" xmlns="http://www.w3.org/2000/svg">
<path d="M3.60688 11.4754L10.4157 18.3131C10.6502 18.5485 10.7674 18.6663 10.9057 18.6953C10.968 18.7084 11.032 18.7084 11.0943 18.6953C11.2326 18.6663 11.3498 18.5485 11.5844 18.3131L18.3931 11.4754C20.3088 9.5516 20.5414 6.38576 18.9303 4.16576L18.6274 3.74833C16.6999 1.09257 12.8309 1.53796 11.4766 4.57152C11.2853 5.00003 10.7147 5.00003 10.5234 4.57152C9.16909 1.53796 5.30015 1.09257 3.37269 3.74834L3.06975 4.16576C1.45855 6.38576 1.69118 9.5516 3.60688 11.4754Z" stroke="white" stroke-width="3"/>
</svg>
