<?xml version="1.0" encoding="utf-8"?>
<!-- Generator: Adobe Illustrator 25.0.0, SVG Export Plug-In . SVG Version: 6.00 Build 0)  -->
<svg version="1.1" id="Layer_1" xmlns="http://www.w3.org/2000/svg" xmlns:xlink="http://www.w3.org/1999/xlink" x="0px" y="0px"
	 viewBox="0 0 800 800" style="enable-background:new 0 0 800 800;" xml:space="preserve">
<style type="text/css">
	.st0{fill:#FFFFFF;}
</style>
<path class="st0" d="M258.7,700c-31.4,0.1-62.1-9.2-88.2-26.6c-26.1-17.4-46.5-42.2-58.5-71.2c-12-29-15.1-60.9-8.9-91.7
	c6.2-30.8,21.4-59,43.7-81.2l47-47c4.7-4.7,11-7.3,17.7-7.3s13,2.6,17.7,7.3c2.4,2.3,4.2,5,5.5,8.1c1.3,3,1.9,6.3,1.9,9.6
	c0,3.3-0.7,6.6-1.9,9.6c-1.3,3-3.2,5.8-5.5,8.1l-47,47c-20.3,20.4-31.7,47.9-31.7,76.7s11.4,56.3,31.7,76.7
	c20.7,19.7,48.1,30.7,76.7,30.7s56-11,76.7-30.7l94-94.3c10.1-10,18.1-22,23.5-35.1c5.5-13.1,8.3-27.2,8.3-41.4
	c0-14.2-2.8-28.3-8.3-41.4c-5.5-13.1-13.4-25.1-23.5-35.1c-4.7-4.7-7.3-11-7.3-17.7c0-6.6,2.6-13,7.3-17.7c2.3-2.4,5-4.2,8.1-5.5
	c3-1.3,6.3-1.9,9.6-1.9c3.3,0,6.6,0.7,9.6,1.9c3,1.3,5.8,3.2,8.1,5.5c14.7,14.7,26.4,32.1,34.4,51.3c8,19.2,12.1,39.8,12.1,60.6
	c0,20.8-4.1,41.4-12.1,60.6c-8,19.2-19.7,36.6-34.4,51.3l-94,94.3c-14.6,14.8-32.1,26.6-51.3,34.6C300.1,695.9,279.5,700,258.7,700z
	"/>
<path class="st0" d="M353,472c-3.3,0.1-6.6-0.5-9.6-1.8s-5.8-3.1-8.1-5.5c-14.8-14.6-26.5-32-34.5-51.2c-8-19.2-12.1-39.8-12.1-60.6
	c0-20.8,4.1-41.4,12.1-60.6c8-19.2,19.7-36.6,34.5-51.2l94-94.3c29.7-29.7,70-46.4,112-46.4c42,0,82.3,16.7,112,46.4
	c29.7,29.7,46.4,70,46.4,112c0,42-16.7,82.3-46.4,112l-47,47c-4.7,4.7-11,7.3-17.7,7.3c-6.6,0-13-2.6-17.7-7.3
	c-2.4-2.3-4.2-5-5.5-8.1c-1.3-3-1.9-6.3-1.9-9.6c0-3.3,0.7-6.6,1.9-9.6c1.3-3,3.2-5.8,5.5-8.1l47-47c20.3-20.4,31.7-47.9,31.7-76.7
	c0-28.7-11.4-56.3-31.7-76.7c-20.7-19.7-48.1-30.7-76.7-30.7s-56,11-76.7,30.7l-94,94.3c-10.1,10-18.2,21.9-23.7,35
	c-5.5,13.1-8.3,27.2-8.3,41.5s2.8,28.3,8.3,41.5c5.5,13.1,13.6,25,23.7,35c4.7,4.7,7.3,11,7.3,17.7c0,6.6-2.6,13-7.3,17.7
	c-2.3,2.3-5.1,4.2-8.1,5.5C359.5,471.4,356.3,472,353,472z"/>
</svg>
