<svg width="19" height="23" viewBox="0 0 19 23" fill="none" xmlns="http://www.w3.org/2000/svg">
<path fill-rule="evenodd" clip-rule="evenodd" d="M12.2028 19.6133C12.8518 19.5469 13.2919 20.2402 12.9848 20.7975C12.7695 21.1901 12.4624 21.5352 12.0983 21.817C11.7247 22.1051 11.2941 22.3236 10.8287 22.4724C10.3632 22.6212 9.87249 22.694 9.3754 22.694C8.88148 22.694 8.38756 22.618 7.92213 22.4724C7.4567 22.3236 7.0261 22.1051 6.6525 21.817C6.28839 21.5352 5.98127 21.1901 5.76597 20.7975C5.45885 20.2371 5.89895 19.5469 6.54801 19.6133C6.75065 19.6323 8.34006 19.7875 9.3754 19.7875C10.4107 19.7875 12.0001 19.6323 12.2028 19.6133Z" fill="white"/>
<path fill-rule="evenodd" clip-rule="evenodd" d="M5.58174 0.885404C7.9722 -0.257581 10.7711 -0.295574 13.1932 0.780921L13.4085 0.875906C15.9478 2.00306 17.572 4.44734 17.572 7.13541V8.46836C17.572 9.54169 17.8158 10.5992 18.2844 11.5712L18.563 12.1506C19.8485 14.8165 18.1736 17.9352 15.1657 18.4703L14.9947 18.5019C11.2745 19.1637 7.45928 19.1637 3.73904 18.5019C0.690024 17.9605 -0.921553 14.7184 0.553879 12.1L0.794507 11.6757C1.38658 10.6245 1.69686 9.44987 1.69686 8.25306V6.90744C1.7032 4.35235 3.20396 2.02206 5.58174 0.885404Z" fill="white"/>
</svg>
