<svg width="26" height="24" viewBox="0 0 26 24" fill="none" xmlns="http://www.w3.org/2000/svg">
<path d="M12.2373 14.4558C13.0731 14.4558 13.8443 14.6494 14.5543 15.0979H15.7298H16.783V11.4457C18.2336 11.3234 19.9119 10.841 21.2131 9.43447C22.3784 8.15027 22.9662 6.33608 22.8914 4.20254C22.8609 3.41775 22.195 2.79603 21.4102 2.82661C20.6254 2.85718 20.0037 3.52306 20.0342 4.30786C20.0648 5.25912 19.9289 6.5739 19.0966 7.48099C18.4613 8.16046 17.5983 8.44924 16.783 8.55456V8.39149C16.7796 3.76428 13.0323 0 8.39149 0C3.76428 0 0 3.75069 0 8.39149V16.4195C0 18.1283 1.82778 19.2019 3.32602 18.3695C4.52189 17.7037 5.35085 17.5066 6.54672 18.1895L6.74376 18.2948C7.06651 18.4545 7.40625 18.5564 7.75278 18.6175C7.92605 16.2734 9.84556 14.4558 12.2373 14.4558ZM11.6258 6.56031C12.397 6.56031 13.0153 7.17863 13.0153 7.94983C13.0459 8.70404 12.4106 9.33935 11.6258 9.33935C10.8546 9.33935 10.2363 8.72103 10.2363 7.94983C10.2363 7.18202 10.8546 6.56031 11.6258 6.56031ZM3.72011 7.93624C3.72011 7.16504 4.33843 6.54672 5.10963 6.54672C5.88083 6.54672 6.49915 7.16504 6.49915 7.93624C6.49915 8.70744 5.88083 9.32576 5.10963 9.32576C4.32484 9.32916 3.72011 8.70744 3.72011 7.93624ZM7.28734 13.2123C6.94081 13.107 6.59088 12.9541 6.27493 12.7605C5.65661 12.3664 5.1572 11.8092 4.82425 11.1433C4.73253 10.9633 4.79368 10.7187 4.97714 10.6134C5.17418 10.4911 5.42899 10.5828 5.52071 10.7798C5.77891 11.3234 6.1866 11.7787 6.68601 12.0946C7.18542 12.4106 7.77317 12.577 8.3779 12.577C8.68026 12.577 8.98263 12.5329 9.25442 12.4547C9.54319 12.38 9.81498 12.2577 10.0698 12.0912C10.5692 11.7753 10.9769 11.32 11.2181 10.79C11.3098 10.61 11.5205 10.5012 11.7005 10.5794C11.9281 10.6711 12.0335 10.9123 11.9281 11.123C11.6122 11.8024 11.1128 12.363 10.4775 12.7571C9.84216 13.1512 9.11852 13.3618 8.3745 13.3618C8.01098 13.3652 7.63387 13.3177 7.28734 13.2123Z" fill="white"/>
<path d="M21.8446 14.9756C21.0666 14.9756 20.3396 15.1896 19.7179 15.5599H14.5063C13.8846 15.1896 13.1576 14.9756 12.3796 14.9756C10.083 14.9756 8.22461 16.8373 8.22461 19.1306C8.22461 21.4272 10.083 23.2889 12.3796 23.2889C13.1576 23.2889 13.888 23.0749 14.5131 22.7012H19.7111C20.3362 23.0749 21.0632 23.2889 21.8446 23.2889C24.1413 23.2889 25.9996 21.4272 25.9996 19.1306C25.9996 16.8373 24.1413 14.9756 21.8446 14.9756ZM13.3886 19.5484H12.5936V20.3434C12.5936 20.6899 12.315 20.9685 11.9685 20.9685C11.622 20.9685 11.3434 20.6899 11.3434 20.3434V19.5484H10.5484C10.2053 19.5484 9.92329 19.2699 9.92329 18.9233C9.92329 18.5802 10.2019 18.2982 10.5484 18.2982H11.3434V17.5032C11.3434 17.1601 11.622 16.8781 11.9685 16.8781C12.315 16.8781 12.5936 17.1567 12.5936 17.5032V18.2982H13.3886C13.7317 18.2982 14.0137 18.5768 14.0137 18.9233C14.0137 19.2699 13.7317 19.5484 13.3886 19.5484ZM21.8888 16.7932C22.2795 16.7932 22.5988 17.1125 22.5988 17.5032C22.5988 17.8939 22.2795 18.2133 21.8888 18.2133C21.4981 18.2133 21.1788 17.8939 21.1788 17.5032C21.1754 17.1125 21.4947 16.7932 21.8888 16.7932ZM20.4653 19.6334C20.0746 19.6334 19.7553 19.314 19.7553 18.9233C19.7553 18.5326 20.0746 18.2133 20.4653 18.2133C20.856 18.2133 21.1754 18.5326 21.1754 18.9233C21.1754 19.3174 20.8594 19.6334 20.4653 19.6334ZM21.8888 21.0535C21.4981 21.0535 21.1788 20.7341 21.1788 20.3434C21.1788 19.9527 21.4981 19.6334 21.8888 19.6334C22.2795 19.6334 22.5988 19.9527 22.5988 20.3434C22.5988 20.7341 22.2795 21.0535 21.8888 21.0535ZM23.2206 19.6334C22.8299 19.6334 22.5105 19.314 22.5105 18.9233C22.5105 18.5326 22.8299 18.2133 23.2206 18.2133C23.6113 18.2133 23.9306 18.5326 23.9306 18.9233C23.9306 19.314 23.6147 19.6334 23.2206 19.6334Z" fill="white"/>
</svg>
