<svg width="18" height="20" viewBox="0 0 18 20" fill="none" xmlns="http://www.w3.org/2000/svg">
<path d="M8.77414 0C3.92844 0 0 3.92844 0 8.77414V17.1798C0 18.9637 1.91677 20.0913 3.47613 19.2247C4.72709 18.5288 5.59375 18.3169 6.83997 19.0286L7.0424 19.1361C8.20164 19.7118 9.57754 19.6754 10.7099 19.0286L10.9028 18.9242C11.9798 18.3722 12.7453 18.5367 13.7195 19.0349L14.0722 19.2247C15.6315 20.0913 17.5483 18.9637 17.5483 17.1798V8.77414C17.5499 3.92844 13.6214 0 8.77414 0ZM3.89997 8.28704C3.89997 7.47889 4.55471 6.82416 5.36285 6.82416C6.171 6.82416 6.82574 7.47889 6.82574 8.28704C6.82574 9.09518 6.171 9.74992 5.36285 9.74992C4.55471 9.74992 3.89997 9.0936 3.89997 8.28704ZM12.4922 11.6161C12.1585 12.3214 11.6335 12.9145 10.974 13.3304C10.3145 13.7479 9.55382 13.9678 8.77414 13.9678H8.77256C7.99288 13.9678 7.23218 13.7479 6.57428 13.332C5.92112 12.9192 5.39923 12.3341 5.06395 11.6382C4.97064 11.4437 5.03074 11.2002 5.21894 11.0926C5.42769 10.9724 5.68864 11.0578 5.78986 11.2697C6.05871 11.8343 6.48097 12.3104 7.00919 12.6441C7.53741 12.9778 8.14787 13.1549 8.77414 13.1549H8.77572C9.40199 13.1549 10.0125 12.9778 10.5407 12.6425C11.0641 12.3119 11.4817 11.8422 11.7505 11.2856C11.8438 11.0942 12.0637 10.9851 12.2645 11.0578C12.4907 11.1416 12.5935 11.401 12.4922 11.6161ZM12.187 9.74834C11.3789 9.74834 10.7241 9.0936 10.7241 8.28546C10.7241 7.47731 11.3789 6.82257 12.187 6.82257C12.9952 6.82257 13.6499 7.47731 13.6499 8.28546C13.6499 9.0936 12.9952 9.74834 12.187 9.74834Z" fill="white"/>
</svg>
