<?xml version="1.0" encoding="utf-8"?>
<!-- Generator: Adobe Illustrator 25.0.0, SVG Export Plug-In . SVG Version: 6.00 Build 0)  -->
<svg version="1.1" id="Layer_1" xmlns="http://www.w3.org/2000/svg" xmlns:xlink="http://www.w3.org/1999/xlink" x="0px" y="0px"
	 viewBox="0 0 800 800" style="enable-background:new 0 0 800 800;" xml:space="preserve">
<style type="text/css">
	.st0{fill:#FFFFFF;}
</style>
<path class="st0" d="M100,300h200V100H100V300z M133.3,133.3h133.3v133.3H133.3V133.3z M166.7,166.7h66.7v66.7h-66.7V166.7z
	 M500,300h200V100H500V300z M533.3,133.3h133.3v133.3H533.3V133.3z M566.7,166.7h66.7v66.7h-66.7V166.7z M100,700h200V500H100V700z
	 M133.3,533.3h133.3v133.3H133.3V533.3z M166.7,566.7h66.7v66.7h-66.7V566.7z M666.7,633.3H700V700h-66.7V600h33.3v33.3H666.7z
	 M666.7,533.3H700v33.3h-33.3V533.3z M666.7,500v33.3h-33.3V500H666.7z M333.3,566.7h33.3V700h-33.3V566.7z M200,333.3V400h-66.7
	v-33.3H100v-33.3h100V333.3z M333.3,233.3h33.3v33.3h-33.3V233.3z M433.3,133.3V200H400V100h66.7v33.3H433.3z M333.3,133.3h33.3
	v33.3h-33.3V133.3z M666.7,400H700v66.7h-66.7v-33.3h33.3V400H666.7z M633.3,333.3v33.3h-66.7v66.7H500V400h33.3v-66.7H633.3z
	 M400,466.7h-33.3v-33.3h-33.3V400H400V466.7z M600,533.3h33.3v33.3H600V533.3z M666.7,366.7V400h-33.3v-33.3H666.7z M366.7,466.7
	V500h-33.3v-33.3H366.7z M566.7,633.3H600V700h-66.7v-66.7H566.7z M466.7,633.3H500v33.3h-33.3V700H400v-33.3h33.3v-33.3h33.4V633.3
	z M466.7,600v-33.3h66.7V600H466.7z M466.7,433.3H500v100h-33.3v33.3h-33.3V600H400v-66.7h-33.3V500h100v-33.3h-33.3v-33.3h33.3
	V433.3z M166.7,433.3v33.3h-33.3v-33.3H166.7z M566.7,566.7h-33.3v-33.3h33.3V566.7z M600,500h-66.7v-33.3H600V500z M266.7,333.3
	H300v33.3h-33.3V400H300v66.7h-33.3v-33.3h-33.3v33.3H200V400h33.3v-66.7H266.7z M366.7,333.3v-66.7h100v100H400v-33.3h33.3V300H400
	v33.3H366.7z M366.7,200H400v33.3h-33.3V200z M333.3,333.3h33.3v33.3h-33.3V333.3z M433.3,233.3V200h33.3v33.3H433.3z"/>
</svg>
