<?xml version="1.0" encoding="utf-8"?>
<!-- Generator: Adobe Illustrator 25.0.0, SVG Export Plug-In . SVG Version: 6.00 Build 0)  -->
<svg version="1.1" id="Layer_1" xmlns="http://www.w3.org/2000/svg" xmlns:xlink="http://www.w3.org/1999/xlink" x="0px" y="0px"
	 viewBox="0 0 800 800" style="enable-background:new 0 0 800 800;" xml:space="preserve">
<style type="text/css">
	.st0{fill:#FFFFFF;}
</style>
<g>
	<path class="st0" d="M500,500l200,200"/>
	<path class="st0" d="M700,733.3c-8.5,0-17.1-3.3-23.6-9.8l-200-200c-13-13-13-34.1,0-47.1c13-13,34.1-13,47.1,0l200,200
		c13,13,13,34.1,0,47.1C717.1,730.1,708.5,733.3,700,733.3z"/>
</g>
<g>
	<path class="st0" d="M566.7,333.3c0,128.9-104.5,233.3-233.3,233.3C204.5,566.7,100,462.2,100,333.3C100,204.5,204.5,100,333.3,100
		C462.2,100,566.7,204.5,566.7,333.3z"/>
	<path class="st0" d="M333.3,600c-71.2,0-138.2-27.7-188.6-78.1c-50.4-50.4-78.1-117.3-78.1-188.6c0-71.2,27.7-138.2,78.1-188.6
		c50.4-50.4,117.3-78.1,188.6-78.1c71.2,0,138.2,27.7,188.6,78.1c50.4,50.4,78.1,117.3,78.1,188.6c0,71.2-27.7,138.2-78.1,188.6
		C471.5,572.3,404.6,600,333.3,600z M333.3,133.3c-110.3,0-200,89.7-200,200c0,110.3,89.7,200,200,200s200-89.7,200-200
		C533.3,223.1,443.6,133.3,333.3,133.3z"/>
</g>
</svg>
