<svg width="18" height="19" viewBox="0 0 18 19" fill="none" xmlns="http://www.w3.org/2000/svg">
<path fill-rule="evenodd" clip-rule="evenodd" d="M15.5507 2.90479C15.0965 2.98558 14.4526 3.19692 13.4215 3.5406L5.6409 6.13413C4.64914 6.46472 3.9494 6.69836 3.44607 6.89475C3.19714 6.99188 3.02378 7.06945 2.90322 7.13306C2.80111 7.18692 2.76441 7.2166 2.76222 7.21811C2.27573 7.68907 2.27573 8.46946 2.76222 8.94042C2.76441 8.94198 2.80111 8.97158 2.90322 9.02552C3.02378 9.08905 3.19714 9.16673 3.44607 9.26382C3.9494 9.46016 4.64914 9.69378 5.6409 10.0244C5.66368 10.032 5.68621 10.0395 5.70863 10.0469C6.03634 10.156 6.32402 10.2516 6.58893 10.3918C7.22723 10.7293 7.74901 11.2511 8.08655 11.8894C8.22668 12.1543 8.32233 12.442 8.43141 12.7697C8.43884 12.7921 8.44628 12.8147 8.45395 12.8374C8.78454 13.8292 9.01816 14.5289 9.21451 15.0322C9.3116 15.2812 9.38927 15.4545 9.4528 15.5751C9.50674 15.6772 9.53635 15.7139 9.53791 15.716C10.0089 16.2026 10.7892 16.2026 11.2602 15.716C11.2617 15.7139 11.2913 15.6772 11.3453 15.5751C11.4088 15.4545 11.4865 15.2812 11.5836 15.0322C11.7799 14.5289 12.0135 13.8292 12.3441 12.8374L14.9377 5.05683C15.2814 4.02576 15.4927 3.3818 15.5735 2.92761C15.5752 2.91816 15.5768 2.90896 15.5783 2.90001C15.5694 2.90152 15.5602 2.90311 15.5507 2.90479ZM15.8612 2.87709C15.8612 2.87709 15.857 2.87698 15.85 2.87546C15.8579 2.87611 15.8612 2.87709 15.8612 2.87709ZM15.6028 2.62826C15.6013 2.62138 15.6013 2.61719 15.6013 2.61719C15.6013 2.61719 15.6022 2.62038 15.6028 2.62826ZM15.1308 0.544493C15.7913 0.427011 16.6957 0.392022 17.391 1.08731C18.0863 1.78262 18.0513 2.68703 17.9338 3.34749C17.8184 3.99648 17.547 4.81053 17.2407 5.72906L17.2121 5.81493L14.6185 13.5955L14.6072 13.6293C14.2904 14.5797 14.038 15.3371 13.8169 15.9036C13.6092 16.4361 13.3629 16.988 12.9919 17.3739C11.577 18.8464 9.2211 18.8464 7.80618 17.3739C7.4352 16.988 7.18887 16.4361 6.98114 15.9036C6.7601 15.3373 6.50766 14.5797 6.19085 13.6295L6.17958 13.5955C6.03526 13.1625 6.00278 13.077 5.96742 13.0102C5.85486 12.7974 5.68094 12.6235 5.46813 12.5109C5.40122 12.4755 5.31577 12.4431 4.88281 12.2987L4.84885 12.2875C3.89856 11.9707 3.1411 11.7182 2.57468 11.4972C2.04224 11.2895 1.49042 11.0431 1.10437 10.6721C-0.368125 9.25711 -0.368125 6.90139 1.10437 5.48639C1.49042 5.11542 2.04224 4.86911 2.57468 4.66138C3.14113 4.44036 3.89862 4.18786 4.84895 3.87109L4.88281 3.85981L12.6633 1.26629C12.6921 1.25671 12.7207 1.24717 12.7493 1.23766C13.6678 0.931389 14.4818 0.659949 15.1308 0.544493Z" fill="white"/>
</svg>
