<svg width="23" height="21" viewBox="0 0 23 21" fill="none" xmlns="http://www.w3.org/2000/svg">
<path d="M5.25035 13.7012L2 10.7759L5.25035 7.85059" stroke="white" stroke-width="2.5" stroke-linecap="round" stroke-linejoin="round"/>
<path d="M2 10.4509H17.6017" stroke="white" stroke-width="2.5" stroke-linecap="round" stroke-linejoin="round"/>
<path d="M9.80078 6.38797V3.09699C9.80078 2.80605 9.91285 2.52703 10.1123 2.3213C10.3118 2.11558 10.5824 2 10.8645 2H20.4383C20.7204 2 20.991 2.11558 21.1905 2.3213C21.39 2.52703 21.502 2.80605 21.502 3.09699V18.4549C21.502 18.7458 21.39 19.0249 21.1905 19.2306C20.991 19.4363 20.7204 19.5519 20.4383 19.5519H10.8645C10.5824 19.5519 10.3118 19.4363 10.1123 19.2306C9.91285 19.0249 9.80078 18.7458 9.80078 18.4549V15.1639" stroke="white" stroke-width="2.5" stroke-linecap="round" stroke-linejoin="round"/>
</svg>
