<?xml version="1.0" encoding="utf-8"?>
<!-- Generator: Adobe Illustrator 25.0.0, SVG Export Plug-In . SVG Version: 6.00 Build 0)  -->
<svg version="1.1" id="Layer_1" xmlns="http://www.w3.org/2000/svg" xmlns:xlink="http://www.w3.org/1999/xlink" x="0px" y="0px"
	 viewBox="0 0 800 800" style="enable-background:new 0 0 800 800;" xml:space="preserve">
<style type="text/css">
	.st0{fill:#FFFFFF;}
</style>
<path class="st0" d="M689.5,134.7c18.2-5.3,37.2,5.2,42.5,23.4c0.9,3.1,1.4,6.3,1.4,9.6l0,190.4c0,19-15.4,34.3-34.4,34.3
	c-7.4,0-14.6-2.4-20.5-6.8l-54.7-41.2L484.3,529.9c-16.8,22.4-47.8,28.5-71.8,14.3l-5-3.3l-111.2-83.6L149,653.5
	c-14,18.7-39.5,23.6-59.2,12.3l-4.8-3.2c-18.4-13.8-23.7-39.2-12.3-59.2l3.2-4.8l169.2-225.4c16.8-22.4,47.8-28.5,71.9-14.3l5,3.3
	l111.2,83.5l117.4-156.3l-54.9-41.2c-15.1-11.4-18.2-32.9-6.7-48.1c3.4-4.6,8-8.2,13.2-10.6l4.6-1.7L689.5,134.7L689.5,134.7
	L689.5,134.7z"/>
</svg>
