<svg width="24" height="24" viewBox="0 0 24 24" fill="none" xmlns="http://www.w3.org/2000/svg">
<path fill-rule="evenodd" clip-rule="evenodd" d="M22.685 4.90543C23.2756 6.33123 23.2756 8.13873 23.2756 11.7538C23.2756 15.3687 23.2756 17.1763 22.685 18.6021C21.8975 20.5032 20.3872 22.0135 18.4861 22.801C17.0604 23.3915 15.2527 23.3915 11.6378 23.3915H7.75852C4.10112 23.3915 2.27242 23.3915 1.13621 22.2553C0 21.1191 0 19.2904 0 15.633V11.7538C0 8.13873 1.54148e-07 6.33123 0.590579 4.90543C1.37803 3.00437 2.88841 1.494 4.78947 0.706546C6.21526 0.115967 8.02277 0.115967 11.6378 0.115967C15.2527 0.115967 17.0604 0.115967 18.4861 0.706546C20.3872 1.494 21.8975 3.00437 22.685 4.90543ZM6.46544 9.16714C6.46544 8.45299 7.04438 7.87405 7.75852 7.87405H15.517C16.2312 7.87405 16.8101 8.45299 16.8101 9.16714C16.8101 9.88123 16.2312 10.4603 15.517 10.4603H7.75852C7.04438 10.4603 6.46544 9.88123 6.46544 9.16714ZM6.46544 14.3395C6.46544 13.6254 7.04438 13.0465 7.75852 13.0465H11.6378C12.352 13.0465 12.9309 13.6254 12.9309 14.3395C12.9309 15.0536 12.352 15.6326 11.6378 15.6326H7.75852C7.04438 15.6326 6.46544 15.0536 6.46544 14.3395Z" fill="white"/>
</svg>
